Coordinates
version=1
nRows=9
nColumns=36
inDegrees=yes

Units are S.I. units (second, meters, Newtons, ...)
If the header above contains a line with 'inDegrees', this indicates whether rotational values are in degrees (yes) or radians (no).

endheader
time	pelvis_tilt	pelvis_list	pelvis_rotation	pelvis_tx	pelvis_ty	pelvis_tz	hip_flexion_r	hip_adduction_r	hip_rotation_r	knee_angle_r	knee_angle_r_beta	ankle_angle_r	subtalar_angle_r	mtp_angle_r	hip_flexion_l	hip_adduction_l	hip_rotation_l	knee_angle_l	knee_angle_l_beta	ankle_angle_l	subtalar_angle_l	mtp_angle_l	lumbar_extension	lumbar_bending	lumbar_rotation	arm_flex_r	arm_add_r	arm_rot_r	elbow_flex_r	pro_sup_r	arm_flex_l	arm_add_l	arm_rot_l	elbow_flex_l	pro_sup_l
      4.91666670	     -6.93974996	      1.24696347	     -0.71326644	      0.33970470	      1.14817377	     -0.06654767	      2.92729185	     -8.65400879	     -0.98431887	      0.60827516	      0.01061640	      3.35765595	     -2.71155859	     -7.49999987	      3.13137169	     -3.86267339	      0.93536245	      1.86258173	      0.03250818	     -0.44999110	     -8.44389108	     -7.49999987	      9.82937016	      2.13533814	      6.62623270	   -197.34419037	     -8.47685937	   -288.13377329	     40.29899879	     73.34826717	    160.24916398	    -11.27584660	     58.25243565	     40.65999990	     86.00628075
      4.93333330	     -7.01509210	      1.29775148	     -0.72042907	      0.33978021	      1.14808109	     -0.06644833	      3.01645886	     -8.70493023	     -1.01724097	      0.60715347	      0.01059683	      3.39235952	     -2.63336258	     -7.49999987	      3.22932971	     -3.80221283	      1.00348073	      1.83152642	      0.03196617	     -0.39415572	     -8.26682860	     -7.49999987	      9.88755597	      2.10974855	      6.62230572	   -197.45806031	     -8.40980769	   -288.34682958	     40.73214419	     73.49531253	    160.23746062	    -10.85916706	     56.97258716	     40.82141162	     86.69129370
      4.95000000	     -7.06611449	      1.33323434	     -0.75207636	      0.33981924	      1.14805423	     -0.06637557	      3.09019556	     -8.73929854	     -0.97195395	      0.60628530	      0.01058167	      3.38745720	     -2.58228697	     -7.49999987	      3.28638684	     -3.75900692	      1.05634239	      1.78105217	      0.03108522	     -0.33200485	     -8.06009503	     -7.49999987	      9.90852061	      2.11029735	      6.60985379	   -197.50711116	     -8.16594369	   -288.90478718	     40.89281291	     73.68919774	    160.32809775	    -10.55163506	     56.20073332	     40.90319775	     86.98367259
      4.96666670	     -7.11581092	      1.35494560	     -0.77438382	      0.33985120	      1.14795309	     -0.06632282	      3.15954192	     -8.76066749	     -0.94112293	      0.60801543	      0.01061187	      3.38022363	     -2.53482662	     -7.49999987	      3.34710889	     -3.72188184	      1.15434280	      1.74019684	      0.03037216	     -0.25887604	     -7.90497934	     -7.49999987	      9.94273731	      2.08639046	      6.74055943	   -197.45939221	     -7.87629323	   -288.73923022	     40.68902190	     73.90022559	    160.16846439	    -10.27751101	     55.08139747	     41.00945677	     87.50241262
      4.98333330	     -7.13832671	      1.38579408	     -0.81274356	      0.33989660	      1.14805352	     -0.06617122	      3.18965262	     -8.78479107	     -0.90025574	      0.60968693	      0.01064104	      3.32857125	     -2.50375495	     -7.49999987	      3.35682272	     -3.69499609	      1.16293595	      1.71111353	      0.02986456	     -0.15046149	     -7.68113338	     -7.49999987	      9.90780418	      2.02205781	      6.44364967	   -197.58860997	     -7.70156161	   -288.77091859	     40.92650453	     70.29088505	    160.87398459	    -10.13038310	     56.46597142	     41.04960253	     83.85503834
      5.00000000	     -7.15586014	      1.38054630	     -0.78952895	      0.33987972	      1.14797298	     -0.06618644	      3.19998092	     -8.77890853	     -0.89699300	      0.61730498	      0.01077400	      3.26624177	     -2.55890086	     -7.49999987	      3.36358743	     -3.71453840	      1.27223691	      1.71303367	      0.02989808	     -0.18630096	     -7.86829191	     -7.49999987	      9.92958784	      2.05215850	      6.61679996	   -197.15898711	     -7.24869912	   -287.93406081	     40.09782462	     73.28315663	    160.54398781	     -9.74292418	     54.36947400	     40.93525984	     87.49032921
      5.01666670	     -7.09110172	      1.37567175	     -0.84921015	      0.33990743	      1.14817593	     -0.06611467	      3.13101683	     -8.77416626	     -0.88048228	      0.61837082	      0.01079261	      3.23969370	     -2.41265225	     -7.49999987	      3.26081237	     -3.74387888	      1.13513291	      1.71536592	      0.02993878	     -0.10359361	     -7.65114262	     -7.49999987	      9.79799731	      2.11382743	      7.06428792	   -196.26531090	     -7.09762671	   -285.15047046	     39.85380169	     70.06417694	    160.29101775	     -9.48504615	     53.59448130	     41.00577529	     82.35778341
      5.03333330	     -7.18564623	      1.37500749	     -0.83118909	      0.33990156	      1.14808241	     -0.06611164	      3.22893890	     -8.76615613	     -0.84363104	      0.63276491	      0.01104383	      3.17239577	     -2.53788382	     -7.49999987	      3.36070770	     -3.75807015	      1.24677004	      1.73545299	      0.03028937	     -0.26395236	     -7.93571289	     -7.49999987	     10.01006846	      2.15660883	      6.38728992	   -197.04386406	     -6.65087049	   -286.92124858	     39.50805326	     73.31132616	    160.55827994	     -9.76964624	     54.70742872	     41.20887953	     88.06616708
      5.05000000	     -7.20096832	      1.37160856	     -0.86085492	      0.33991569	      1.14814812	     -0.06610977	      3.25047173	     -8.75586903	     -0.77043823	      0.64057139	      0.01118008	      3.11330530	     -2.60791364	     -7.49999987	      3.35991069	     -3.78014345	      1.20148123	      1.74448377	      0.03044699	     -0.30349117	     -7.94216545	     -7.49999987	     10.01165830	      2.19532508	      6.28748291	   -196.98840620	     -6.54831491	   -286.66821102	     39.49353679	     73.10545674	    160.45630240	     -9.50235475	     54.18757134	     41.30574079	     88.44543350
